<svg xmlns="http://www.w3.org/2000/svg" viewBox="0 0 1200 675"><style>text{font-family:Arial;fill:#172033}.t{font-size:34px;font-weight:bold}.h{font-size:24px;font-weight:bold}.l{font-size:18px;font-weight:bold}.s{font-size:16px}.p{fill:#fff;stroke:#cbd5e1;stroke-width:2}.a{fill:#e8f2ff;stroke:#3574a7;stroke-width:2}.k{fill:#fff2d8;stroke:#d38b16;stroke-width:2}.g{fill:#e6f5eb;stroke:#358357;stroke-width:2}.v{fill:#f1eafe;stroke:#7c5cc4;stroke-width:2}</style><rect width="1200" height="675" fill="#f7f9fc"/><text x="600" y="50" text-anchor="middle" class="t">Contenedores y máquinas virtuales</text><rect x="45" y="90" width="540" height="540" rx="20" class="p"/><rect x="615" y="90" width="540" height="540" rx="20" class="p"/><text x="315" y="135" text-anchor="middle" class="h">CONTENEDORES</text><text x="885" y="135" text-anchor="middle" class="h">MÁQUINAS VIRTUALES</text><g class="a"><rect x="75" y="170" width="145" height="95" rx="12"/><rect x="242" y="170" width="145" height="95" rx="12"/><rect x="409" y="170" width="145" height="95" rx="12"/><rect x="645" y="170" width="145" height="95" rx="12"/><rect x="812" y="170" width="145" height="95" rx="12"/><rect x="979" y="170" width="145" height="95" rx="12"/></g><g text-anchor="middle" class="l"><text x="147" y="225">App A</text><text x="314" y="225">App B</text><text x="481" y="225">App C</text><text x="717" y="225">App A</text><text x="884" y="225">App B</text><text x="1051" y="225">App C</text></g><rect x="75" y="310" width="479" height="110" rx="12" class="k"/><text x="314" y="355" text-anchor="middle" class="h">Kernel Linux del host</text><text x="314" y="390" text-anchor="middle" class="s">COMPARTIDO por todos</text><g class="k"><rect x="645" y="310" width="145" height="110" rx="12"/><rect x="812" y="310" width="145" height="110" rx="12"/><rect x="979" y="310" width="145" height="110" rx="12"/></g><g text-anchor="middle"><text x="717" y="355" class="l">Kernel</text><text x="717" y="385" class="s">invitado 1</text><text x="884" y="355" class="l">Kernel</text><text x="884" y="385" class="s">invitado 2</text><text x="1051" y="355" class="l">Kernel</text><text x="1051" y="385" class="s">invitado 3</text></g><rect x="75" y="465" width="479" height="70" rx="12" class="g"/><text x="314" y="508" text-anchor="middle" class="l">Hardware</text><rect x="645" y="450" width="479" height="65" rx="12" class="v"/><text x="884" y="490" text-anchor="middle" class="l">KVM · virtualización</text><rect x="645" y="535" width="479" height="55" rx="12" class="g"/><text x="884" y="570" text-anchor="middle" class="l">Host Linux + hardware</text><text x="314" y="585" text-anchor="middle" class="l" fill="#a26109">Menos sobrecarga</text><text x="885" y="620" text-anchor="middle" class="l" fill="#6849a6">Más aislamiento</text></svg>
